<?xml version="1.0" encoding="UTF-8" standalone="no"?>
<!-- Created with Inkscape (http://www.inkscape.org/) -->

<svg
   width="512"
   height="512"
   viewBox="0 0 512 512"
   version="1.1"
   id="svg5"
   xml:space="preserve"
   xmlns="http://www.w3.org/2000/svg"
   xmlns:svg="http://www.w3.org/2000/svg"><defs
     id="defs2" /><g
     id="layer4"><rect
       style="display:inline;fill:#f9c300;fill-opacity:1;stroke-width:8;stroke-linecap:round;stroke-opacity:0"
       id="rect10689"
       width="512"
       height="512"
       x="0"
       y="0" /><g
       id="layer2"
       style="display:inline"><rect
         style="fill:#000000;fill-opacity:0.12;stroke-width:0;stroke-linecap:round;stroke-opacity:0.120536"
         id="rect465"
         width="128"
         height="128"
         x="5.0549664e-07"
         y="5.0549664e-07" /><rect
         style="fill:#000000;fill-opacity:0.12;stroke-width:0;stroke-linecap:round;stroke-opacity:0.120536"
         id="rect10852"
         width="128"
         height="128"
         x="128"
         y="128" /><rect
         style="fill:#000000;fill-opacity:0.12;stroke-width:0;stroke-linecap:round;stroke-opacity:0.120536"
         id="rect10854"
         width="128"
         height="128"
         x="256"
         y="5.0549664e-07" /><rect
         style="fill:#000000;fill-opacity:0.12;stroke-width:0;stroke-linecap:round;stroke-opacity:0.120536"
         id="rect10856"
         width="128"
         height="128"
         x="384"
         y="128" /><rect
         style="fill:#000000;fill-opacity:0.12;stroke-width:0;stroke-linecap:round;stroke-opacity:0.120536"
         id="rect10858"
         width="128"
         height="128"
         x="5.0549664e-07"
         y="256" /><rect
         style="fill:#000000;fill-opacity:0.12;stroke-width:0;stroke-linecap:round;stroke-opacity:0.120536"
         id="rect10860"
         width="128"
         height="128"
         x="128"
         y="384" /><rect
         style="fill:#000000;fill-opacity:0.12;stroke-width:0;stroke-linecap:round;stroke-opacity:0.120536"
         id="rect10862"
         width="128"
         height="128"
         x="256"
         y="256" /><rect
         style="fill:#000000;fill-opacity:0.12;stroke-width:0;stroke-linecap:round;stroke-opacity:0.120536"
         id="rect10864"
         width="128"
         height="128"
         x="384"
         y="384" /></g></g><g
     id="layer3"
     style="display:inline"><g
       aria-label="PROTOTYPE"
       id="text4701"
       style="font-size:14.8167px;line-height:0;font-family:'Lilita One';-inkscape-font-specification:'Lilita One';display:inline;fill:#ffffff;stroke-width:1.41102;stroke-linecap:round;stroke-opacity:0;fill-opacity:0.55000001"><path
         d="m 40.906273,33.000459 q -1.34832,0 -1.34832,-0.296334 v -9.601222 q 0,-0.503768 0.459318,-0.503768 h 2.607739 q 2.192871,0 3.155957,0.903819 0.977902,0.903819 0.977902,2.622556 0,1.422403 -0.918635,2.607739 -0.459318,0.592668 -1.34832,0.948269 -0.889002,0.355601 -2.074338,0.355601 v 2.652189 q 0,0.1778 -0.563035,0.251884 -0.548217,0.05927 -0.948268,0.05927 z m 1.511303,-7.823218 v 2.341039 h 0.192617 q 0.518585,0 0.874185,-0.325968 0.355601,-0.325967 0.355601,-0.918635 0,-0.592668 -0.251884,-0.844552 -0.237067,-0.251884 -0.859368,-0.251884 z"
         id="path10611"
         style="fill:#ffffff;fill-opacity:0.55000001" /><path
         d="m 50.892724,32.763391 q 0,0.237068 -1.407586,0.237068 -1.422404,0 -1.422404,-0.222251 V 23.11772 q 0,-0.518585 0.548218,-0.518585 h 2.82999 q 3.896792,0 3.896792,3.037424 0,0.918635 -0.355601,1.674287 -0.3556,0.740835 -1.007535,1.185336 l 1.866904,3.111507 q -0.118534,0.355601 -0.770468,0.814918 -0.889002,0.637118 -1.466854,0.637118 -0.577851,0 -0.859368,-0.414867 L 51.352042,29.4 h -0.459318 z m 0,-7.5417 v 2.222505 h 0.07408 q 1.407586,0 1.407586,-1.170519 0,-0.533401 -0.281517,-0.785285 -0.266701,-0.266701 -0.889002,-0.266701 z"
         id="path10613"
         style="fill:#ffffff;fill-opacity:0.55000001" /><path
         d="m 61.20515,33.118992 q -2.074338,0 -3.393024,-1.363136 -1.30387,-1.363137 -1.30387,-3.970876 0,-2.622556 1.318686,-3.970875 1.333503,-1.34832 3.422658,-1.34832 2.103971,0 3.393024,1.333503 1.289053,1.318686 1.289053,4.015326 0,2.681822 -1.318686,4.000509 -1.318686,1.303869 -3.407841,1.303869 z m 0.01482,-7.808401 q -0.711202,0 -1.200153,0.651935 -0.474134,0.651935 -0.474134,1.837271 0,1.170519 0.459317,1.807637 0.459318,0.622302 1.200153,0.622302 0.755652,0 1.214969,-0.637118 0.474135,-0.637118 0.474135,-1.822454 0,-1.185336 -0.488951,-1.822455 -0.474135,-0.637118 -1.185336,-0.637118 z"
         id="path10615"
         style="fill:#ffffff;fill-opacity:0.55000001" /><path
         d="m 71.576827,32.733758 q 0,0.296334 -1.466853,0.296334 -1.466854,0 -1.466854,-0.296334 v -7.437983 h -1.778004 q -0.251883,0 -0.3556,-0.681569 -0.04445,-0.325967 -0.04445,-0.666751 0,-0.340784 0.04445,-0.666752 0.103717,-0.681568 0.3556,-0.681568 h 6.445265 q 0.251884,0 0.355601,0.681568 0.04445,0.325968 0.04445,0.666752 0,0.340784 -0.04445,0.666751 -0.103717,0.681569 -0.355601,0.681569 h -1.733554 z"
         id="path10617"
         style="fill:#ffffff;fill-opacity:0.55000001" /><path
         d="m 78.955554,33.118992 q -2.074338,0 -3.393024,-1.363136 -1.30387,-1.363137 -1.30387,-3.970876 0,-2.622556 1.318687,-3.970875 1.333503,-1.34832 3.422657,-1.34832 2.103972,0 3.393025,1.333503 1.289053,1.318686 1.289053,4.015326 0,2.681822 -1.318687,4.000509 -1.318686,1.303869 -3.407841,1.303869 z m 0.01482,-7.808401 q -0.711202,0 -1.200153,0.651935 -0.474134,0.651935 -0.474134,1.837271 0,1.170519 0.459318,1.807637 0.459317,0.622302 1.200152,0.622302 0.755652,0 1.21497,-0.637118 0.474134,-0.637118 0.474134,-1.822454 0,-1.185336 -0.488951,-1.822455 -0.474134,-0.637118 -1.185336,-0.637118 z"
         id="path10619"
         style="fill:#ffffff;fill-opacity:0.55000001" /><path
         d="m 89.327233,32.733758 q 0,0.296334 -1.466853,0.296334 -1.466853,0 -1.466853,-0.296334 v -7.437983 h -1.778004 q -0.251884,0 -0.355601,-0.681569 -0.04445,-0.325967 -0.04445,-0.666751 0,-0.340784 0.04445,-0.666752 0.103717,-0.681568 0.355601,-0.681568 h 6.445264 q 0.251884,0 0.355601,0.681568 0.04445,0.325968 0.04445,0.666752 0,0.340784 -0.04445,0.666751 -0.103717,0.681569 -0.355601,0.681569 h -1.733554 z"
         id="path10621"
         style="fill:#ffffff;fill-opacity:0.55000001" /><path
         d="m 97.461614,23.088086 q 0.192617,-0.518584 1.896538,-0.518584 0.429684,0 1.007538,0.05927 0.59267,0.05927 0.54822,0.148167 l -3.081878,6.19338 v 3.615275 q 0,0.251884 -0.814919,0.355601 -0.414867,0.05927 -0.814918,0.05927 -0.400051,0 -0.800102,-0.04445 -0.814919,-0.103716 -0.814919,-0.370417 v -3.526375 l -3.18559,-6.252647 q -0.05927,-0.0889 0.607485,-0.162984 0.666751,-0.0889 1.126069,-0.0889 1.822454,0 2.000254,0.533401 l 1.081619,3.022607 z"
         id="path10623"
         style="fill:#ffffff;fill-opacity:0.55000001" /><path
         d="m 102.70672,33.000459 q -1.34832,0 -1.34832,-0.296334 v -9.601222 q 0,-0.503768 0.45932,-0.503768 h 2.60774 q 2.19287,0 3.15596,0.903819 0.9779,0.903819 0.9779,2.622556 0,1.422403 -0.91864,2.607739 -0.45931,0.592668 -1.34832,0.948269 -0.889,0.355601 -2.07433,0.355601 v 2.652189 q 0,0.1778 -0.56304,0.251884 -0.54822,0.05927 -0.94827,0.05927 z m 1.51131,-7.823218 v 2.341039 h 0.19261 q 0.51859,0 0.87419,-0.325968 0.3556,-0.325967 0.3556,-0.918635 0,-0.592668 -0.25189,-0.844552 -0.23706,-0.251884 -0.85936,-0.251884 z"
         id="path10625"
         style="fill:#ffffff;fill-opacity:0.55000001" /><path
         d="m 114.67861,26.718178 q 0.28152,0 0.28152,1.037169 0,0.311151 -0.0741,0.740835 -0.0593,0.414867 -0.23707,0.414867 h -1.88172 v 1.48167 h 2.72627 q 0.25188,0 0.34078,0.651935 0.0444,0.281517 0.0444,0.607485 0,0.311151 -0.0889,0.814918 -0.0889,0.503768 -0.29633,0.503768 h -5.06731 q -0.56304,0 -0.56304,-0.459318 v -9.527138 q 0,-0.385234 0.34079,-0.385234 h 5.30438 q 0.31115,0 0.31115,1.318687 0,1.303869 -0.31115,1.303869 h -2.74109 v 1.496487 z"
         id="path10627"
         style="fill:#ffffff;fill-opacity:0.55000001" /></g><g
       fill="#ffffff"
       id="g8325"
       transform="matrix(0.02788603,0,0,0.02788603,8.0430331,7.4312926)"
       style="display:inline;fill:#ffffff;fill-opacity:0.55000001"><path
         d="m 417.61523,76.875 c -42.39203,9.424151 -84.32671,22.54494 -123.64257,42.33398 0.89912,34.71618 3.14362,67.97967 7.69336,101.76758 -15.26846,9.78214 -31.31507,18.17757 -45.57618,29.62891 -14.49005,11.14747 -29.2896,21.81231 -42.41015,34.84961 C 187.46773,268.1178 159.72502,251.82518 131.14453,237.44336 100.33705,270.59856 71.53124,306.38342 48,346.42773 c 18.493057,29.02877 38.32949,58.20569 56.69922,80.95899 v 197.7832 25.1211 22.86132 c 0.44956,0.004 0.89835,0.0209 1.34375,0.0625 l 150.66992,14.52735 c 7.89231,0.76176 14.07749,7.11448 14.62695,15.02343 l 4.64649,66.50977 131.42969,9.37891 9.05468,-61.38672 c 1.17386,-7.95891 8.00029,-13.85742 16.05078,-13.85742 h 158.96094 c 8.04633,0 14.87302,5.89851 16.04688,13.85742 l 9.05468,61.38672 131.4336,-9.37891 4.64258,-66.50977 c 0.55362,-7.90895 6.73464,-14.25751 14.62695,-15.02343 l 150.61133,-14.52735 c 0.4454,-0.0416 0.89028,-0.0583 1.33984,-0.0625 v -19.61132 l 0.0625,-0.0195 v -226.1348 c 21.2165,-26.70928 41.30684,-56.1715 56.69922,-80.95899 -23.52291,-40.04431 -52.34486,-75.82917 -83.15234,-108.98437 -28.57217,14.38182 -56.32515,30.67444 -82.53711,48.01172 -13.11639,-13.0373 -27.88953,-23.70214 -42.40039,-34.84961 -14.25695,-11.45134 -30.32318,-19.84677 -45.5625,-29.62891 4.53724,-33.78791 6.7803,-67.0514 7.68359,-101.76758 C 690.71123,99.41994 648.78198,86.299151 606.36914,76.875 c -16.9335,28.45977 -32.41939,59.27922 -45.90625,89.4082 -15.99275,-2.67239 -32.05995,-3.66203 -48.14844,-3.85351 v -0.0254 c -0.11239,0 -0.21676,0.0254 -0.3125,0.0254 -0.0999,0 -0.20478,-0.0254 -0.30468,-0.0254 v 0.0254 c -16.11763,0.19148 -32.17106,1.18112 -48.16797,3.85351 C 450.05076,136.15422 434.57371,105.33477 417.61523,76.875 Z M 298.41602,436.39844 c 50.15113,0 90.79882,40.61746 90.79882,90.75195 0,50.16779 -40.64769,90.80859 -90.79882,90.80859 -50.12617,0 -90.78711,-40.6408 -90.78711,-90.80859 0,-50.13449 40.66094,-90.75195 90.78711,-90.75195 z m 427.17773,0 c 50.122,0 90.7793,40.61746 90.7793,90.75195 0,50.16779 -40.6573,90.80859 -90.7793,90.80859 -50.15946,0 -90.80664,-40.6408 -90.80664,-90.80859 0,-50.13449 40.64718,-90.75195 90.80664,-90.75195 z m -213.59961,53.10937 c 16.14261,0 29.25391,11.90816 29.25391,26.56055 v 83.58984 c 0,14.66488 -13.1113,26.5625 -29.25391,26.5625 -16.1426,0 -29.22656,-11.89762 -29.22656,-26.5625 v -83.58984 c 0,-14.65239 13.08396,-26.56055 29.22656,-26.56055 z"
         stroke-width="4.16261"
         id="path8317"
         style="fill:#ffffff;fill-opacity:0.55000001" /><path
         d="m 0,0 -1.121,-16.063 c -0.135,-1.936 -1.675,-3.477 -3.611,-3.616 l -38.555,-2.751 c -0.094,-0.007 -0.188,-0.01 -0.281,-0.01 -1.916,0 -3.569,1.406 -3.852,3.33 l -2.211,14.994 H -81.09 l -2.211,-14.994 c -0.297,-2.018 -2.101,-3.469 -4.133,-3.32 l -38.555,2.751 c -1.936,0.139 -3.476,1.68 -3.611,3.616 L -130.721,0 -163.268,3.138 c 0.015,-3.498 0.06,-7.33 0.06,-8.093 0,-34.374 43.605,-50.896 97.781,-51.086 h 0.066 0.067 c 54.176,0.19 97.766,16.712 97.766,51.086 0,0.777 0.047,4.593 0.063,8.093 z"
         transform="matrix(4.162611,0,0,-4.162611,784.07144,718.72312)"
         id="path8319"
         style="fill:#ffffff;fill-opacity:0.55000001" /><path
         d="m 0,0 c 0,-7.994 -6.479,-14.473 -14.479,-14.473 -7.996,0 -14.479,6.479 -14.479,14.473 0,7.994 6.483,14.479 14.479,14.479 C -6.479,14.479 0,7.994 0,0"
         transform="matrix(4.162611,0,0,-4.162611,367.36686,532.53707)"
         id="path8321"
         style="fill:#ffffff;fill-opacity:0.55000001" /><path
         d="m 0,0 c 0,-7.994 6.477,-14.473 14.471,-14.473 8.002,0 14.479,6.479 14.479,14.473 0,7.994 -6.477,14.479 -14.479,14.479 C 6.477,14.479 0,7.994 0,0"
         transform="matrix(4.162611,0,0,-4.162611,656.64056,532.53707)"
         id="path8323"
         style="fill:#ffffff;fill-opacity:0.55000001" /></g><g
       aria-label="512 x 512"
       id="text8397"
       style="font-size:16.2278px;line-height:0;font-family:'Roboto Condensed';-inkscape-font-specification:'Roboto Condensed, ';fill:#ffffff;stroke-width:0;stroke-linecap:round;stroke-opacity:0;fill-opacity:0.55000001"><path
         d="m 54.481777,51.805618 -1.473814,-0.380339 0.538814,-5.808094 H 58.8636 v 1.65606 h -3.787543 l -0.245636,2.781229 q 0.221865,-0.158475 0.59428,-0.309025 0.372416,-0.158475 0.839916,-0.158475 0.705212,0 1.244025,0.269407 0.546738,0.269407 0.927077,0.776525 0.380339,0.499195 0.570509,1.212331 0.198093,0.713136 0.198093,1.616441 0,0.800297 -0.198093,1.497585 -0.198094,0.689365 -0.610128,1.220255 -0.412034,0.53089 -1.030085,0.831992 -0.610127,0.301101 -1.426271,0.301101 -0.618051,0 -1.180636,-0.206017 -0.562585,-0.21394 -1.014238,-0.633898 -0.443729,-0.419958 -0.721059,-1.030085 -0.269407,-0.618051 -0.301102,-1.418348 h 1.798687 q 0.05547,0.554661 0.237712,0.942924 0.182246,0.388263 0.483347,0.59428 0.301102,0.198093 0.689365,0.198093 0.364492,0 0.633898,-0.166398 0.269407,-0.174322 0.443729,-0.491272 0.174322,-0.316949 0.261483,-0.74483 0.08716,-0.435805 0.08716,-0.958772 0,-0.499195 -0.103009,-0.911229 -0.09508,-0.419957 -0.293178,-0.721059 -0.198093,-0.309026 -0.499195,-0.475424 -0.293178,-0.166398 -0.689365,-0.166398 -0.53089,0 -0.792373,0.206017 -0.261483,0.198093 -0.499195,0.475423 z"
         id="path10630"
         style="fill-opacity:0.55000001" /><path
         d="m 65.305593,45.577566 v 11.576571 h -1.846229 v -9.262841 l -2.297882,0.950847 v -1.608517 l 3.922247,-1.65606 z"
         id="path10632"
         style="fill-opacity:0.55000001" /><path
         d="m 75.479664,55.601085 v 1.553052 h -6.640087 v -1.339111 l 3.145721,-4.080721 q 0.515043,-0.689365 0.792373,-1.18856 0.285255,-0.507118 0.396187,-0.911229 0.110932,-0.40411 0.110932,-0.792373 0,-0.538813 -0.150551,-0.950847 -0.142627,-0.412034 -0.427881,-0.641823 -0.285255,-0.237712 -0.697288,-0.237712 -0.515043,0 -0.84784,0.277331 -0.332796,0.269407 -0.491271,0.752754 -0.158475,0.475424 -0.158475,1.093475 h -1.846229 q 0,-1.006314 0.388263,-1.846229 0.396187,-0.839915 1.148941,-1.331187 0.752754,-0.499195 1.830382,-0.499195 0.99839,0 1.687754,0.388263 0.697289,0.388263 1.053856,1.101399 0.364492,0.713135 0.364492,1.695678 0,0.538814 -0.150551,1.077627 -0.142627,0.53089 -0.40411,1.053856 -0.261483,0.522967 -0.633898,1.053857 -0.364492,0.53089 -0.808221,1.077627 l -1.988856,2.694068 z"
         id="path10634"
         style="fill-opacity:0.55000001" /><path
         d="m 82.278225,48.58066 1.236102,2.614831 1.164788,-2.614831 h 2.020552 l -2.25034,4.207501 2.329577,4.365976 h -2.020551 l -1.283645,-2.701992 -1.259873,2.701992 H 80.18636 l 2.274111,-4.350128 -2.202797,-4.223349 z"
         id="path10636"
         style="fill-opacity:0.55000001" /><path
         d="m 93.529923,51.805618 -1.473814,-0.380339 0.538813,-5.808094 h 5.316824 v 1.65606 h -3.787544 l -0.245635,2.781229 q 0.221864,-0.158475 0.59428,-0.309025 0.372415,-0.158475 0.839915,-0.158475 0.705212,0 1.244026,0.269407 0.546737,0.269407 0.927076,0.776525 0.380339,0.499195 0.570509,1.212331 0.198093,0.713136 0.198093,1.616441 0,0.800297 -0.198093,1.497585 -0.198093,0.689365 -0.610127,1.220255 -0.412034,0.53089 -1.030085,0.831992 -0.610128,0.301101 -1.426272,0.301101 -0.618051,0 -1.180636,-0.206017 -0.562585,-0.21394 -1.014237,-0.633898 -0.443729,-0.419958 -0.72106,-1.030085 -0.269407,-0.618051 -0.301102,-1.418348 h 1.798687 q 0.05547,0.554661 0.237712,0.942924 0.182246,0.388263 0.483348,0.59428 0.301102,0.198093 0.689364,0.198093 0.364492,0 0.633899,-0.166398 0.269407,-0.174322 0.443729,-0.491272 0.174322,-0.316949 0.261483,-0.74483 0.08716,-0.435805 0.08716,-0.958772 0,-0.499195 -0.103009,-0.911229 -0.09508,-0.419957 -0.293178,-0.721059 -0.198093,-0.309026 -0.499195,-0.475424 -0.293178,-0.166398 -0.689364,-0.166398 -0.53089,0 -0.792373,0.206017 -0.261483,0.198093 -0.499194,0.475423 z"
         id="path10638"
         style="fill-opacity:0.55000001" /><path
         d="m 104.35374,45.577566 v 11.576571 h -1.84623 v -9.262841 l -2.29788,0.950847 v -1.608517 l 3.92224,-1.65606 z"
         id="path10640"
         style="fill-opacity:0.55000001" /><path
         d="m 114.52781,55.601085 v 1.553052 h -6.64009 v -1.339111 l 3.14572,-4.080721 q 0.51504,-0.689365 0.79237,-1.18856 0.28526,-0.507118 0.39619,-0.911229 0.11093,-0.40411 0.11093,-0.792373 0,-0.538813 -0.15055,-0.950847 -0.14262,-0.412034 -0.42788,-0.641823 -0.28525,-0.237712 -0.69729,-0.237712 -0.51504,0 -0.84784,0.277331 -0.33279,0.269407 -0.49127,0.752754 -0.15847,0.475424 -0.15847,1.093475 h -1.84623 q 0,-1.006314 0.38826,-1.846229 0.39619,-0.839915 1.14894,-1.331187 0.75276,-0.499195 1.83038,-0.499195 0.99839,0 1.68776,0.388263 0.69729,0.388263 1.05385,1.101399 0.3645,0.713135 0.3645,1.695678 0,0.538814 -0.15055,1.077627 -0.14263,0.53089 -0.40411,1.053856 -0.26149,0.522967 -0.6339,1.053857 -0.36449,0.53089 -0.80822,1.077627 l -1.98886,2.694068 z"
         id="path10642"
         style="fill-opacity:0.55000001" /></g><path
       style="fill-opacity:1;stroke:#ffffff;stroke-width:2;stroke-linecap:round;stroke-opacity:0.55000001"
       d="M 11.265462,39.894205 H 114.51497"
       id="path9812" /><g
       fill="#eeeeee"
       id="g10017"
       style="display:inline;fill:#ffffff;fill-opacity:0.55000001"
       transform="matrix(0.11303521,0,0,-0.11303521,-7.1943595,52.904578)"><path
         d="m 0,0 c -3.611,0 -6.636,-1.659 -9.09,-4.967 -2.441,-3.311 -3.668,-7.958 -3.668,-13.938 0,-5.993 1.166,-10.581 3.503,-13.778 2.333,-3.207 5.398,-4.804 9.2,-4.804 3.8,0 6.887,1.617 9.258,4.862 2.371,3.233 3.559,7.861 3.559,13.886 0,6.02 -1.227,10.654 -3.673,13.89 C 6.646,-1.617 3.616,0 0,0 m -0.055,-59.493 c -10.573,0 -19.195,3.46 -25.859,10.379 -6.655,6.925 -9.984,17.03 -9.984,30.314 0,13.292 3.367,23.356 10.101,30.209 6.736,6.844 15.431,10.269 26.082,10.269 10.649,0 19.251,-3.363 25.794,-10.109 6.555,-6.733 9.827,-16.94 9.827,-30.591 0,-13.661 -3.348,-23.822 -10.05,-30.49 -6.702,-6.654 -15.333,-9.981 -25.911,-9.981"
         transform="matrix(1.1310535,0,0,1.1310535,531.44953,355.31567)"
         id="path10007"
         style="fill:#ffffff;fill-opacity:0.55000001" /><path
         d="m 0,0 v -33.768 c 0,-1.577 0.116,-2.571 0.342,-2.988 0.224,-0.415 0.903,-0.623 2.029,-0.623 4.144,0 7.283,1.548 9.429,4.634 2.151,3.083 3.215,8.216 3.215,15.405 0,7.192 -1.113,11.878 -3.325,14.055 C 9.467,-1.102 5.946,0 1.129,0 Z m -21.675,-52.392 v 67.735 c 0,1.883 0.468,3.369 1.413,4.471 0.939,1.085 2.161,1.636 3.671,1.636 H 2.263 c 11.965,0 21.053,-3.018 27.257,-9.04 6.215,-6.02 9.322,-15.499 9.322,-28.447 0,-27.7 -11.821,-41.547 -35.456,-41.547 h -19.302 c -3.836,0 -5.759,1.727 -5.759,5.192"
         transform="matrix(1.1310535,0,0,1.1310535,607.8515,354.43097)"
         id="path10009"
         style="fill:#ffffff;fill-opacity:0.55000001" /><path
         d="m 0,0 c -3.612,0 -6.645,-1.659 -9.095,-4.967 -2.44,-3.311 -3.662,-7.958 -3.662,-13.938 0,-5.993 1.169,-10.581 3.499,-13.778 2.33,-3.207 5.398,-4.804 9.2,-4.804 3.801,0 6.89,1.617 9.258,4.862 2.372,3.233 3.56,7.861 3.56,13.886 0,6.02 -1.225,10.654 -3.671,13.89 C 6.642,-1.617 3.616,0 0,0 m -0.058,-59.493 c -10.577,0 -19.193,3.46 -25.851,10.379 -6.663,6.925 -9.993,17.03 -9.993,30.314 0,13.292 3.367,23.356 10.1,30.209 6.741,6.844 15.431,10.269 26.086,10.269 10.651,0 19.246,-3.363 25.797,-10.109 6.55,-6.733 9.822,-16.94 9.822,-30.591 0,-13.661 -3.349,-23.822 -10.05,-30.49 -6.699,-6.654 -15.338,-9.981 -25.911,-9.981"
         transform="matrix(1.1310535,0,0,1.1310535,700.81066,355.31567)"
         id="path10011"
         style="fill:#ffffff;fill-opacity:0.55000001" /><path
         d="m 0,0 c 0,-1.496 -3.721,-2.255 -11.176,-2.255 -7.448,0 -11.18,0.759 -11.18,2.255 v 56.681 h -13.545 c -1.281,0 -2.185,1.727 -2.71,5.198 -0.226,1.652 -0.334,3.343 -0.334,5.077 0,1.724 0.108,3.422 0.334,5.077 0.525,3.462 1.429,5.202 2.71,5.202 h 49.112 c 1.279,0 2.179,-1.74 2.712,-5.202 0.221,-1.655 0.335,-3.353 0.335,-5.077 0,-1.734 -0.114,-3.425 -0.335,-5.077 C 15.39,58.408 14.49,56.681 13.211,56.681 H 0 Z"
         transform="matrix(1.1310535,0,0,1.1310535,789.01132,291.33514)"
         id="path10013"
         style="fill:#ffffff;fill-opacity:0.55000001" /><path
         d="m 0,0 c -6.078,0.094 -13.034,-1.173 -13.034,-1.173 v -11.863 h 6.995 l -0.078,-5.288 c 0,-1.959 -1.942,-2.943 -5.815,-2.943 -3.878,0 -7.303,1.642 -10.274,4.917 -2.978,3.279 -4.459,8.072 -4.459,14.388 0,6.329 1.447,10.995 4.345,14.006 2.892,3.008 6.683,4.517 11.346,4.517 1.959,0 3.987,-0.316 6.096,-0.961 2.11,-0.639 3.519,-1.238 4.238,-1.799 0.713,-0.577 1.391,-0.85 2.032,-0.85 0.638,0 1.671,0.746 3.1,2.255 1.431,1.505 2.713,3.786 3.844,6.827 1.126,3.057 1.69,5.4 1.69,7.062 0,1.649 -0.036,2.786 -0.109,3.386 -1.581,1.73 -4.499,3.102 -8.755,4.122 -4.248,1.017 -9.011,1.522 -14.28,1.522 -11.594,0 -20.66,-3.65 -27.207,-10.95 -6.552,-7.303 -9.822,-16.783 -9.822,-28.452 0,-13.701 3.347,-24.087 10.041,-31.162 6.706,-7.074 15.51,-10.607 26.425,-10.607 5.87,0 11.08,0.505 15.632,1.522 4.557,1.013 7.586,2.053 9.093,3.105 l 0.452,35.33 C 11.496,-1.036 6.078,-0.104 0,0"
         transform="matrix(1.1310535,0,0,1.1310535,468.26549,336.71278)"
         id="path10015"
         style="fill:#ffffff;fill-opacity:0.55000001" /></g><rect
       style="display:inline;fill-opacity:0;stroke:#ffffff;stroke-width:4.95164;stroke-linecap:round;stroke-opacity:0.55"
       id="rect7743"
       width="507.04834"
       height="507.04837"
       x="2.4758222"
       y="2.4758222" /></g></svg>
