<?xml version="1.0" encoding="UTF-8" standalone="no"?>
<!-- Created with Inkscape (http://www.inkscape.org/) -->

<svg
   width="1024"
   height="1024"
   version="1.1"
   viewBox="0 0 1024 1024"
   xml:space="preserve"
   id="svg528"
   xmlns="http://www.w3.org/2000/svg"
   xmlns:svg="http://www.w3.org/2000/svg"><defs
     id="defs532" /><g
     id="g526"><rect
       x="0"
       y="0"
       width="1024"
       height="1024"
       fill="#c63525"
       stroke-opacity="0"
       id="rect446"
       style="fill:#f9c300;fill-opacity:1;stroke-width:2" /><g
       stroke="#ffffff"
       stroke-linecap="round"
       stroke-opacity="0"
       stroke-width="1.411"
       aria-label="PROTOTYPE"
       id="g466"
       style="display:inline;fill:#ffffff"><path
         d="m 40.906,33 q -1.3483,0 -1.3483,-0.29633 v -9.6012 q 0,-0.50377 0.45932,-0.50377 h 2.6077 q 2.1929,0 3.156,0.90382 0.9779,0.90382 0.9779,2.6226 0,1.4224 -0.91864,2.6077 -0.45932,0.59267 -1.3483,0.94827 -0.88898,0.3556 -2.0743,0.3556 v 2.6522 q 0,0.1778 -0.56304,0.25188 -0.54822,0.05927 -0.94827,0.05927 z m 1.5113,-7.8232 v 2.341 h 0.19262 q 0.51858,0 0.87418,-0.32597 0.3556,-0.32597 0.3556,-0.91864 0,-0.59267 -0.25188,-0.84455 -0.23707,-0.25188 -0.85937,-0.25188 z"
         id="path448"
         style="fill:#ffffff" /><path
         d="m 50.893,32.763 q 0,0.23707 -1.4076,0.23707 -1.4224,0 -1.4224,-0.22225 v -9.6605 q 0,-0.51858 0.54822,-0.51858 h 2.83 q 3.8968,0 3.8968,3.0374 0,0.91864 -0.3556,1.6743 -0.3556,0.74084 -1.0075,1.1853 l 1.8669,3.1115 q -0.11853,0.3556 -0.77047,0.81492 -0.889,0.63712 -1.4669,0.63712 -0.57785,0 -0.85937,-0.41487 l -1.3928,-3.2449 h -0.45932 z m 0,-7.5417 v 2.2225 h 0.07408 q 1.4076,0 1.4076,-1.1705 0,-0.5334 -0.28152,-0.78528 -0.2667,-0.2667 -0.889,-0.2667 z"
         id="path450"
         style="fill:#ffffff" /><path
         d="m 61.205,33.119 q -2.0743,0 -3.393,-1.3631 -1.3039,-1.3631 -1.3039,-3.9709 0,-2.6226 1.3187,-3.9709 1.3335,-1.3483 3.4227,-1.3483 2.104,0 3.393,1.3335 1.2891,1.3187 1.2891,4.0153 0,2.6818 -1.3187,4.0005 -1.3187,1.3039 -3.4078,1.3039 z m 0.01482,-7.8084 q -0.7112,0 -1.2002,0.65194 -0.47413,0.65194 -0.47413,1.8373 0,1.1705 0.45932,1.8076 0.45932,0.6223 1.2002,0.6223 0.75565,0 1.215,-0.63712 0.47414,-0.63712 0.47414,-1.8225 0,-1.18538 -0.48895,-1.8225 -0.47414,-0.63712 -1.1853,-0.63712 z"
         id="path452"
         style="fill:#ffffff" /><path
         d="m 71.577,32.734 q 0,0.29633 -1.4669,0.29633 -1.4669,0 -1.4669,-0.29633 v -7.438 h -1.778 q -0.25188,0 -0.3556,-0.68157 -0.04445,-0.32597 -0.04445,-0.66675 0,-0.34078 0.04445,-0.66675 0.10372,-0.68157 0.3556,-0.68157 h 6.4453 q 0.25188,0 0.3556,0.68157 0.04445,0.32597 0.04445,0.66675 0,0.34078 -0.04445,0.66675 -0.10372,0.68157 -0.3556,0.68157 h -1.7336 z"
         id="path454"
         style="fill:#ffffff" /><path
         d="m 78.956,33.119 q -2.0743,0 -3.393,-1.3631 -1.3039,-1.3631 -1.3039,-3.9709 0,-2.6226 1.3187,-3.9709 1.3335,-1.3483 3.4227,-1.3483 2.104,0 3.393,1.3335 1.2891,1.3187 1.2891,4.0153 0,2.6818 -1.3187,4.0005 -1.3187,1.3039 -3.4078,1.3039 z m 0.01482,-7.8084 q -0.7112,0 -1.2002,0.65194 -0.47413,0.65194 -0.47413,1.8373 0,1.1705 0.45932,1.8076 0.45932,0.6223 1.2002,0.6223 0.75565,0 1.215,-0.63712 0.47413,-0.63712 0.47413,-1.8225 0,-1.18538 -0.48895,-1.8225 -0.47413,-0.63712 -1.1853,-0.63712 z"
         id="path456"
         style="fill:#ffffff" /><path
         d="m 89.327,32.734 q 0,0.29633 -1.4669,0.29633 -1.4669,0 -1.4669,-0.29633 v -7.438 h -1.778 q -0.25188,0 -0.3556,-0.68157 -0.04445,-0.32597 -0.04445,-0.66675 0,-0.34078 0.04445,-0.66675 0.10372,-0.68157 0.3556,-0.68157 h 6.4453 q 0.25188,0 0.3556,0.68157 0.04445,0.32597 0.04445,0.66675 0,0.34078 -0.04445,0.66675 -0.10372,0.68157 -0.3556,0.68157 h -1.7336 z"
         id="path458"
         style="fill:#ffffff" /><path
         d="m 97.462,23.088 q 0.19262,-0.51858 1.8965,-0.51858 0.42968,0 1.0075,0.05927 0.59267,0.05927 0.54822,0.14817 l -3.0819,6.1934 v 3.6153 q 0,0.25188 -0.81492,0.3556 -0.41487,0.05927 -0.81492,0.05927 -0.40005,0 -0.8001,-0.04445 -0.81492,-0.10372 -0.81492,-0.37042 v -3.5264 l -3.1856,-6.2526 q -0.05927,-0.0889 0.60748,-0.16298 0.66675,-0.0889 1.1261,-0.0889 1.8225,0 2.0003,0.5334 l 1.0816,3.0226 z"
         id="path460"
         style="fill:#ffffff" /><path
         d="m 102.71,33 q -1.3483,0 -1.3483,-0.29633 v -9.6012 q 0,-0.50377 0.45932,-0.50377 h 2.6077 q 2.1929,0 3.156,0.90382 0.9779,0.90382 0.9779,2.6226 0,1.4224 -0.91864,2.6077 -0.45931,0.59267 -1.3483,0.94827 -0.889,0.3556 -2.0743,0.3556 v 2.6522 q 0,0.1778 -0.56304,0.25188 -0.54822,0.05927 -0.94827,0.05927 z m 1.5113,-7.8232 v 2.341 h 0.19261 q 0.51859,0 0.87419,-0.32597 0.3556,-0.32597 0.3556,-0.91864 0,-0.59267 -0.25189,-0.84455 -0.23706,-0.25188 -0.85936,-0.25188 z"
         id="path462"
         style="fill:#ffffff" /><path
         d="m 114.68,26.718 q 0.28152,0 0.28152,1.0372 0,0.31115 -0.0741,0.74084 -0.0593,0.41487 -0.23707,0.41487 h -1.8817 v 1.4817 h 2.7263 q 0.25188,0 0.34078,0.65194 0.0444,0.28152 0.0444,0.60748 0,0.31115 -0.0889,0.81492 -0.0889,0.50377 -0.29633,0.50377 h -5.0673 q -0.56304,0 -0.56304,-0.45932 v -9.5271 q 0,-0.38523 0.34079,-0.38523 h 5.3044 q 0.31115,0 0.31115,1.3187 0,1.3039 -0.31115,1.3039 h -2.7411 v 1.4965 z"
         id="path464"
         style="fill:#ffffff" /></g><g
       transform="matrix(0.027886,0,0,0.027886,8.043,7.4313)"
       id="g476"
       style="display:inline;fill:#ffffff"><path
         d="m 417.62,76.875 c -42.392,9.4242 -84.327,22.545 -123.64,42.334 0.89912,34.716 3.1436,67.98 7.6934,101.77 -15.268,9.7821 -31.315,18.178 -45.576,29.629 -14.49,11.147 -29.29,21.812 -42.41,34.85 -26.212,-17.337 -53.955,-33.63 -82.535,-48.012 -30.807,33.155 -59.613,68.94 -83.145,108.98 18.493,29.029 38.329,58.206 56.699,80.959 v 245.77 c 0.44956,0.004 0.89835,0.0209 1.3438,0.0625 l 150.67,14.527 c 7.8923,0.76176 14.077,7.1145 14.627,15.023 l 4.6465,66.51 131.43,9.3789 9.0547,-61.387 c 1.1739,-7.9589 8.0003,-13.857 16.051,-13.857 h 158.96 c 8.0463,0 14.873,5.8985 16.047,13.857 l 9.0547,61.387 131.43,-9.3789 4.6426,-66.51 c 0.55362,-7.909 6.7346,-14.258 14.627,-15.023 l 150.61,-14.527 c 0.4454,-0.0416 0.89028,-0.0583 1.3398,-0.0625 v -19.611 l 0.0625,-0.0195 v -226.13 c 21.216,-26.709 41.307,-56.172 56.699,-80.959 -23.523,-40.044 -52.345,-75.829 -83.152,-108.98 -28.572,14.382 -56.325,30.674 -82.537,48.012 -13.116,-13.037 -27.89,-23.702 -42.4,-34.85 -14.257,-11.451 -30.323,-19.847 -45.562,-29.629 4.5372,-33.788 6.7803,-67.051 7.6836,-101.77 -39.32,-19.789 -81.249,-32.91 -123.66,-42.334 -16.934,28.46 -32.419,59.279 -45.906,89.408 -15.993,-2.6724 -32.06,-3.662 -48.148,-3.8535 v -0.0254 c -0.11239,0 -0.21676,0.0254 -0.3125,0.0254 -0.0999,0 -0.20478,-0.0254 -0.30468,-0.0254 v 0.0254 c -16.118,0.19148 -32.171,1.1811 -48.168,3.8535 -13.479,-30.129 -28.956,-60.948 -45.914,-89.408 z m -119.2,359.52 c 50.151,0 90.799,40.617 90.799,90.752 0,50.168 -40.648,90.809 -90.799,90.809 -50.126,0 -90.787,-40.641 -90.787,-90.809 0,-50.134 40.661,-90.752 90.787,-90.752 z m 427.18,0 c 50.122,0 90.779,40.617 90.779,90.752 0,50.168 -40.657,90.809 -90.779,90.809 -50.159,0 -90.807,-40.641 -90.807,-90.809 0,-50.134 40.647,-90.752 90.807,-90.752 z M 512,489.504 c 16.143,0 29.254,11.908 29.254,26.561 v 83.59 c 0,14.665 -13.111,26.562 -29.254,26.562 -16.143,0 -29.227,-11.898 -29.227,-26.562 v -83.59 c 0,-14.652 13.084,-26.561 29.227,-26.561 z"
         stroke-width="4.1626"
         id="path468"
         style="fill:#ffffff" /><path
         transform="matrix(4.1626,0,0,-4.1626,784.07,718.72)"
         d="m 0,0 -1.121,-16.063 c -0.135,-1.936 -1.675,-3.477 -3.611,-3.616 l -38.555,-2.751 c -0.094,-0.007 -0.188,-0.01 -0.281,-0.01 -1.916,0 -3.569,1.406 -3.852,3.33 l -2.211,14.994 H -81.09 l -2.211,-14.994 c -0.297,-2.018 -2.101,-3.469 -4.133,-3.32 l -38.555,2.751 c -1.936,0.139 -3.476,1.68 -3.611,3.616 L -130.721,0 -163.268,3.138 c 0.015,-3.498 0.06,-7.33 0.06,-8.093 0,-34.374 43.605,-50.896 97.781,-51.086 h 0.133 c 54.176,0.19 97.766,16.712 97.766,51.086 0,0.777 0.047,4.593 0.063,8.093 z"
         id="path470"
         style="fill:#ffffff" /><path
         transform="matrix(4.1626,0,0,-4.1626,367.37,532.54)"
         d="m 0,0 c 0,-7.994 -6.479,-14.473 -14.479,-14.473 -7.996,0 -14.479,6.479 -14.479,14.473 0,7.994 6.483,14.479 14.479,14.479 C -6.479,14.479 0,7.994 0,0"
         id="path472"
         style="fill:#ffffff" /><path
         transform="matrix(4.1626,0,0,-4.1626,656.64,532.54)"
         d="m 0,0 c 0,-7.994 6.477,-14.473 14.471,-14.473 8.002,0 14.479,6.479 14.479,14.473 0,7.994 -6.477,14.479 -14.479,14.479 C 6.477,14.479 0,7.994 0,0"
         id="path474"
         style="fill:#ffffff" /></g><path
       d="m 11.265,39.894 h 103.25"
       stroke="#ffffff"
       stroke-linecap="round"
       stroke-width="2"
       id="path494"
       style="display:inline" /><g
       transform="matrix(0.11304,0,0,-0.11304,-7.1944,52.905)"
       fill="#ffffff"
       id="g508"><path
         transform="matrix(1.1311,0,0,1.1311,531.45,355.32)"
         d="m 0,0 c -3.611,0 -6.636,-1.659 -9.09,-4.967 -2.441,-3.311 -3.668,-7.958 -3.668,-13.938 0,-5.993 1.166,-10.581 3.503,-13.778 2.333,-3.207 5.398,-4.804 9.2,-4.804 3.8,0 6.887,1.617 9.258,4.862 2.371,3.233 3.559,7.861 3.559,13.886 0,6.02 -1.227,10.654 -3.673,13.89 C 6.646,-1.617 3.616,0 0,0 m -0.055,-59.493 c -10.573,0 -19.195,3.46 -25.859,10.379 -6.655,6.925 -9.984,17.03 -9.984,30.314 0,13.292 3.367,23.356 10.101,30.209 6.736,6.844 15.431,10.269 26.082,10.269 10.649,0 19.251,-3.363 25.794,-10.109 6.555,-6.733 9.827,-16.94 9.827,-30.591 0,-13.661 -3.348,-23.822 -10.05,-30.49 -6.702,-6.654 -15.333,-9.981 -25.911,-9.981"
         id="path498" /><path
         transform="matrix(1.1311,0,0,1.1311,607.85,354.43)"
         d="m 0,0 v -33.768 c 0,-1.577 0.116,-2.571 0.342,-2.988 0.224,-0.415 0.903,-0.623 2.029,-0.623 4.144,0 7.283,1.548 9.429,4.634 2.151,3.083 3.215,8.216 3.215,15.405 0,7.192 -1.113,11.878 -3.325,14.055 C 9.467,-1.102 5.946,0 1.129,0 Z m -21.675,-52.392 v 67.735 c 0,1.883 0.468,3.369 1.413,4.471 0.939,1.085 2.161,1.636 3.671,1.636 H 2.263 c 11.965,0 21.053,-3.018 27.257,-9.04 6.215,-6.02 9.322,-15.499 9.322,-28.447 0,-27.7 -11.821,-41.547 -35.456,-41.547 h -19.302 c -3.836,0 -5.759,1.727 -5.759,5.192"
         id="path500" /><path
         transform="matrix(1.1311,0,0,1.1311,700.81,355.32)"
         d="m 0,0 c -3.612,0 -6.645,-1.659 -9.095,-4.967 -2.44,-3.311 -3.662,-7.958 -3.662,-13.938 0,-5.993 1.169,-10.581 3.499,-13.778 2.33,-3.207 5.398,-4.804 9.2,-4.804 3.801,0 6.89,1.617 9.258,4.862 2.372,3.233 3.56,7.861 3.56,13.886 0,6.02 -1.225,10.654 -3.671,13.89 C 6.642,-1.617 3.616,0 0,0 m -0.058,-59.493 c -10.577,0 -19.193,3.46 -25.851,10.379 -6.663,6.925 -9.993,17.03 -9.993,30.314 0,13.292 3.367,23.356 10.1,30.209 6.741,6.844 15.431,10.269 26.086,10.269 10.651,0 19.246,-3.363 25.797,-10.109 6.55,-6.733 9.822,-16.94 9.822,-30.591 0,-13.661 -3.349,-23.822 -10.05,-30.49 -6.699,-6.654 -15.338,-9.981 -25.911,-9.981"
         id="path502" /><path
         transform="matrix(1.1311,0,0,1.1311,789.01,291.34)"
         d="m 0,0 c 0,-1.496 -3.721,-2.255 -11.176,-2.255 -7.448,0 -11.18,0.759 -11.18,2.255 v 56.681 h -13.545 c -1.281,0 -2.185,1.727 -2.71,5.198 -0.226,1.652 -0.334,3.343 -0.334,5.077 0,1.724 0.108,3.422 0.334,5.077 0.525,3.462 1.429,5.202 2.71,5.202 h 49.112 c 1.279,0 2.179,-1.74 2.712,-5.202 0.221,-1.655 0.335,-3.353 0.335,-5.077 0,-1.734 -0.114,-3.425 -0.335,-5.077 C 15.39,58.408 14.49,56.681 13.211,56.681 H 0 Z"
         id="path504" /><path
         transform="matrix(1.1311,0,0,1.1311,468.27,336.71)"
         d="m 0,0 c -6.078,0.094 -13.034,-1.173 -13.034,-1.173 v -11.863 h 6.995 l -0.078,-5.288 c 0,-1.959 -1.942,-2.943 -5.815,-2.943 -3.878,0 -7.303,1.642 -10.274,4.917 -2.978,3.279 -4.459,8.072 -4.459,14.388 0,6.329 1.447,10.995 4.345,14.006 2.892,3.008 6.683,4.517 11.346,4.517 1.959,0 3.987,-0.316 6.096,-0.961 2.11,-0.639 3.519,-1.238 4.238,-1.799 0.713,-0.577 1.391,-0.85 2.032,-0.85 0.638,0 1.671,0.746 3.1,2.255 1.431,1.505 2.713,3.786 3.844,6.827 1.126,3.057 1.69,5.4 1.69,7.062 0,1.649 -0.036,2.786 -0.109,3.386 -1.581,1.73 -4.499,3.102 -8.755,4.122 -4.248,1.017 -9.011,1.522 -14.28,1.522 -11.594,0 -20.66,-3.65 -27.207,-10.95 -6.552,-7.303 -9.822,-16.783 -9.822,-28.452 0,-13.701 3.347,-24.087 10.041,-31.162 6.706,-7.074 15.51,-10.607 26.425,-10.607 5.87,0 11.08,0.505 15.632,1.522 4.557,1.013 7.586,2.053 9.093,3.105 l 0.452,35.33 C 11.496,-1.036 6.078,-0.104 0,0"
         id="path506" /></g><g
       stroke="#ffffff"
       stroke-linecap="round"
       stroke-width="3"
       id="g524"
       style="stroke-linecap:square;stroke-width:1.5;stroke-dasharray:none"
       transform="scale(2)"><path
         d="m 256,1.5 v 509"
         id="path512"
         style="stroke-linecap:square;stroke-width:1.5;stroke-dasharray:none;image-rendering:auto" /><path
         d="m 128.75,1.5 v 509"
         stroke-opacity="0.18973"
         id="path514"
         style="stroke-width:1.5;stroke-linecap:square;stroke-dasharray:none" /><path
         d="m 384.75,1.5 v 509"
         stroke-opacity="0.18973"
         id="path516"
         style="stroke-width:1.5;stroke-linecap:square;stroke-dasharray:none" /><path
         d="m 1.5,256 h 509"
         id="path518"
         style="stroke-width:1.5;stroke-linecap:square;stroke-dasharray:none" /><path
         d="m 1.5,384.75 h 509"
         stroke-opacity="0.18973"
         id="path520"
         style="stroke-width:1.5;stroke-linecap:square;stroke-dasharray:none" /><path
         d="m 1.5,128.75 h 509"
         stroke-opacity="0.18973"
         id="path522"
         style="stroke-width:1.5;stroke-linecap:square;stroke-dasharray:none" /><path
         d="m 64.75,1.5 v 509"
         stroke-opacity="0.18973"
         id="path2057"
         style="stroke-width:0.75;stroke-linecap:square;stroke-dasharray:none" /><path
         d="m 192.75,1.5 v 509"
         stroke-opacity="0.18973"
         id="path2059"
         style="stroke-width:0.75;stroke-linecap:square;stroke-dasharray:none" /><path
         d="m 448.75,1.5 v 509"
         stroke-opacity="0.18973"
         id="path2061"
         style="stroke-width:0.75;stroke-linecap:square;stroke-dasharray:none" /><path
         d="m 320.75,1.5 v 509"
         stroke-opacity="0.18973"
         id="path2063"
         style="stroke-width:0.75;stroke-linecap:square;stroke-dasharray:none;opacity:1" /><path
         d="m 1.5,64.75 h 509"
         stroke-opacity="0.18973"
         id="path3517"
         style="stroke-width:0.75;stroke-linecap:square;stroke-dasharray:none" /><path
         d="m 1.5,192.75 h 509"
         stroke-opacity="0.18973"
         id="path3519"
         style="stroke-width:0.75;stroke-linecap:square;stroke-dasharray:none" /><path
         d="m 1.5,320.75 h 509"
         stroke-opacity="0.18973"
         id="path3521"
         style="stroke-width:0.75;stroke-linecap:square;stroke-dasharray:none" /><path
         d="m 1.5,448.75 h 509"
         stroke-opacity="0.18973"
         id="path3523"
         style="stroke-width:1.5;stroke-linecap:square;stroke-dasharray:none" /></g><rect
       style="display:inline;fill-opacity:0;stroke:#ffffff;stroke-width:5.02405;stroke-linecap:round;stroke-dasharray:none;stroke-opacity:1"
       id="rect7743"
       width="1018.976"
       height="1018.976"
       x="2.5120285"
       y="2.5120285" /><g
       aria-label="1024 x 1024"
       id="text3628"
       style="font-size:16.2px;line-height:1.3;font-family:'Roboto Condensed';-inkscape-font-specification:'Roboto Condensed, Normal';opacity:1;fill:#ffffff;stroke-width:1.5;stroke-linecap:round;stroke-linejoin:round;stroke-opacity:0.0605469;paint-order:markers fill stroke"><path
         d="m 41.276538,45.57211 v 11.556739 h -1.843066 v -9.246973 l -2.293946,0.949219 v -1.605762 l 3.915528,-1.653223 z"
         id="path5311" /><path
         d="m 51.243336,50.405216 v 1.882617 q 0,1.352637 -0.237305,2.309766 -0.229395,0.949219 -0.656543,1.54248 -0.419238,0.593262 -1.0125,0.870118 -0.585352,0.276855 -1.305176,0.276855 -0.569531,0 -1.067871,-0.174023 -0.49834,-0.174024 -0.901758,-0.545801 -0.395508,-0.371777 -0.680273,-0.957129 -0.276856,-0.593262 -0.435059,-1.415918 -0.150293,-0.822656 -0.150293,-1.906348 v -1.882617 q 0,-1.360547 0.237305,-2.293946 0.237304,-0.941308 0.664453,-1.52666 0.427148,-0.593261 1.0125,-0.862207 0.593262,-0.268945 1.313086,-0.268945 0.569531,0 1.067871,0.174023 0.49834,0.166114 0.893848,0.529981 0.395508,0.363867 0.680273,0.949219 0.284766,0.577441 0.427149,1.400097 0.150293,0.814746 0.150293,1.898438 z m -1.835157,2.159473 V 50.11254 q 0,-0.680273 -0.06328,-1.202344 -0.06328,-0.52207 -0.174023,-0.885937 -0.110743,-0.363867 -0.284766,-0.585352 -0.166113,-0.229394 -0.387598,-0.332226 -0.213574,-0.110743 -0.474609,-0.110743 -0.324316,0 -0.585352,0.166114 -0.253125,0.166113 -0.435058,0.53789 -0.174024,0.363868 -0.268946,0.965039 -0.09492,0.593262 -0.09492,1.447559 v 2.452149 q 0,0.688183 0.06328,1.210254 0.06328,0.52207 0.181933,0.901757 0.118653,0.371778 0.284766,0.609083 0.166113,0.229394 0.379688,0.340136 0.221484,0.110742 0.482519,0.110742 0.332227,0 0.585352,-0.174023 0.261035,-0.174023 0.435058,-0.545801 0.174024,-0.379687 0.261035,-0.988769 0.09492,-0.609082 0.09492,-1.463379 z"
         id="path5313" /><path
         d="m 59.53318,55.578458 v 1.550391 h -6.628711 v -1.336816 l 3.140332,-4.073731 q 0.51416,-0.688184 0.791015,-1.186524 0.284766,-0.50625 0.395508,-0.909668 0.110742,-0.403418 0.110742,-0.791015 0,-0.537891 -0.150293,-0.949219 -0.142382,-0.411328 -0.427148,-0.640723 -0.284766,-0.237304 -0.696094,-0.237304 -0.51416,0 -0.846387,0.276855 -0.332226,0.268945 -0.490429,0.751465 -0.158203,0.474609 -0.158203,1.091602 h -1.843067 q 0,-1.00459 0.387598,-1.843067 0.395508,-0.838477 1.146973,-1.328906 0.751464,-0.49834 1.827246,-0.49834 0.996679,0 1.684863,0.387598 0.696094,0.387597 1.052051,1.099511 0.363867,0.711914 0.363867,1.692774 0,0.53789 -0.150293,1.075781 -0.142383,0.529981 -0.403418,1.052051 -0.261035,0.52207 -0.632812,1.052051 -0.363868,0.52998 -0.806836,1.075781 l -1.98545,2.689453 z"
         id="path5315" /><path
         d="m 67.751833,52.999747 v 1.550391 h -7.04004 l -0.04746,-1.178613 4.081641,-7.759864 h 1.463379 l -1.487109,2.887207 -2.175294,4.500879 z M 66.6365,45.611661 V 57.128849 H 64.785524 V 45.611661 Z"
         id="path5317" /><path
         d="m 74.420096,48.57006 1.233984,2.610351 1.162793,-2.610351 h 2.01709 l -2.246484,4.200293 2.325586,4.358496 h -2.01709 l -1.281445,-2.697363 -1.257715,2.697363 h -2.025 L 74.60203,52.786173 72.403006,48.57006 Z"
         id="path5319" /><path
         d="m 88.357791,45.57211 v 11.556739 h -1.843066 v -9.246973 l -2.293946,0.949219 v -1.605762 l 3.915528,-1.653223 z"
         id="path5321" /><path
         d="m 98.324587,50.405216 v 1.882617 q 0,1.352637 -0.237305,2.309766 -0.229394,0.949219 -0.656543,1.54248 -0.419238,0.593262 -1.0125,0.870118 -0.585352,0.276855 -1.305176,0.276855 -0.569531,0 -1.067871,-0.174023 -0.49834,-0.174024 -0.901758,-0.545801 -0.395508,-0.371777 -0.680273,-0.957129 -0.276856,-0.593262 -0.435059,-1.415918 -0.150293,-0.822656 -0.150293,-1.906348 v -1.882617 q 0,-1.360547 0.237305,-2.293946 0.237305,-0.941308 0.664453,-1.52666 0.427148,-0.593261 1.0125,-0.862207 0.593262,-0.268945 1.313086,-0.268945 0.569531,0 1.067871,0.174023 0.49834,0.166114 0.893848,0.529981 0.395508,0.363867 0.680273,0.949219 0.284766,0.577441 0.427149,1.400097 0.150293,0.814746 0.150293,1.898438 z M 96.48943,52.564689 V 50.11254 q 0,-0.680273 -0.06328,-1.202344 -0.06328,-0.52207 -0.174023,-0.885937 -0.110742,-0.363867 -0.284766,-0.585352 -0.166113,-0.229394 -0.387598,-0.332226 -0.213574,-0.110743 -0.474609,-0.110743 -0.324316,0 -0.585352,0.166114 -0.253125,0.166113 -0.435058,0.53789 -0.174024,0.363868 -0.268945,0.965039 -0.09492,0.593262 -0.09492,1.447559 v 2.452149 q 0,0.688183 0.06328,1.210254 0.06328,0.52207 0.181934,0.901757 0.118652,0.371778 0.284765,0.609083 0.166113,0.229394 0.379688,0.340136 0.221484,0.110742 0.482519,0.110742 0.332227,0 0.585352,-0.174023 0.261035,-0.174023 0.435058,-0.545801 0.174024,-0.379687 0.261036,-0.988769 0.09492,-0.609082 0.09492,-1.463379 z"
         id="path5323" /><path
         d="m 106.61443,55.578458 v 1.550391 h -6.628708 v -1.336816 l 3.140328,-4.073731 q 0.51416,-0.688184 0.79102,-1.186524 0.28477,-0.50625 0.39551,-0.909668 0.11074,-0.403418 0.11074,-0.791015 0,-0.537891 -0.15029,-0.949219 -0.14239,-0.411328 -0.42715,-0.640723 -0.28477,-0.237304 -0.6961,-0.237304 -0.51416,0 -0.84638,0.276855 -0.33223,0.268945 -0.49043,0.751465 -0.15821,0.474609 -0.15821,1.091602 h -1.843062 q 0,-1.00459 0.387602,-1.843067 0.3955,-0.838477 1.14697,-1.328906 0.75146,-0.49834 1.82724,-0.49834 0.99668,0 1.68487,0.387598 0.69609,0.387597 1.05205,1.099511 0.36387,0.711914 0.36387,1.692774 0,0.53789 -0.1503,1.075781 -0.14238,0.529981 -0.40341,1.052051 -0.26104,0.52207 -0.63282,1.052051 -0.36386,0.52998 -0.80683,1.075781 l -1.98545,2.689453 z"
         id="path5325" /><path
         d="m 114.83309,52.999747 v 1.550391 h -7.04004 l -0.0475,-1.178613 4.08164,-7.759864 h 1.46338 l -1.48711,2.887207 -2.1753,4.500879 z m -1.11533,-7.388086 v 11.517188 h -1.85098 V 45.611661 Z"
         id="path5327" /></g></g></svg>
