<?xml version="1.0" encoding="UTF-8" standalone="no"?>
<!-- Created with Inkscape (http://www.inkscape.org/) -->

<svg
   width="512"
   height="512"
   version="1.1"
   viewBox="0 0 512 512"
   xml:space="preserve"
   id="svg529"
   xmlns="http://www.w3.org/2000/svg"
   xmlns:svg="http://www.w3.org/2000/svg"><defs
     id="defs533" /><g
     id="g527"
     style="display:inline"><rect
       x="0"
       y="0"
       width="512"
       height="512"
       fill="#c63525"
       stroke-opacity="0"
       id="rect447"
       style="display:inline;fill:#cf3c8a;fill-opacity:1" /><rect
       x="26.117218"
       y="26.117218"
       width="459.76556"
       height="459.76556"
       fill="#c63525"
       stroke-opacity="0"
       id="rect825"
       ry="12.41791"
       rx="0"
       style="display:inline;fill:#b7357a;fill-opacity:1" /><g
       transform="matrix(0.39601478,0,0,0.39601478,53.240433,52.250396)"
       id="g3861"><g
         fill="#ffffff"
         id="g3853"><path
           d="m 105,673 v 33 q 407,354 814,0 v -33 z"
           id="path3843" /><path
           fill="#478cbf"
           d="m 105,673 152,14 q 12,1 15,14 l 4,67 132,10 8,-61 q 2,-11 15,-15 h 162 q 13,4 15,15 l 8,61 132,-10 4,-67 q 3,-13 15,-14 L 919,673 V 427 q 30,-39 56,-81 -35,-59 -83,-108 -43,20 -82,47 -40,-37 -88,-64 7,-51 8,-102 -59,-28 -123,-42 -26,43 -46,89 -49,-7 -98,0 -20,-46 -46,-89 -64,14 -123,42 1,51 8,102 -48,27 -88,64 -39,-27 -82,-47 -48,49 -83,108 26,42 56,81 z m 0,33 v 39 c 0,276 813,276 813,0 v -39 l -134,12 -5,69 q -2,10 -14,13 l -162,11 q -12,0 -16,-11 L 577,735 H 447 l -10,65 q -4,11 -16,11 L 259,800 q -12,-3 -14,-13 l -5,-69 z"
           id="path3845"
           style="fill:#cf3c8a;fill-opacity:1" /><path
           d="m 483,600 c 3,34 55,34 58,0 v -86 c -3,-34 -55,-34 -58,0 z"
           id="path3847" /><circle
           cx="725"
           cy="526"
           r="90"
           id="circle3849" /><circle
           cx="299"
           cy="526"
           r="90"
           id="circle3851" /></g><g
         fill="#414042"
         id="g3859"
         style="fill:#b7357a;fill-opacity:1"><circle
           cx="307"
           cy="532"
           r="60"
           id="circle3855"
           style="fill:#b7357a;fill-opacity:1" /><circle
           cx="717"
           cy="532"
           r="60"
           id="circle3857"
           style="fill:#b7357a;fill-opacity:1" /></g></g></g></svg>
