<?xml version="1.0" encoding="UTF-8" standalone="no"?>
<!-- Created with Inkscape (http://www.inkscape.org/) -->

<svg
   width="512"
   height="512"
   version="1.1"
   viewBox="0 0 512 512"
   xml:space="preserve"
   id="svg528"
   xmlns="http://www.w3.org/2000/svg"
   xmlns:svg="http://www.w3.org/2000/svg"><defs
     id="defs532" /><g
     id="g526"><rect
       x="0"
       y="0"
       width="512"
       height="512"
       fill="#c63525"
       stroke-opacity="0"
       id="rect446"
       style="fill:#cf3c8a;fill-opacity:1" /><g
       stroke="#ffffff"
       stroke-linecap="round"
       stroke-opacity="0"
       stroke-width="1.411"
       aria-label="PROTOTYPE"
       id="g466"
       style="display:inline;fill:#ffffff"><path
         d="m 40.906,33 q -1.3483,0 -1.3483,-0.29633 v -9.6012 q 0,-0.50377 0.45932,-0.50377 h 2.6077 q 2.1929,0 3.156,0.90382 0.9779,0.90382 0.9779,2.6226 0,1.4224 -0.91864,2.6077 -0.45932,0.59267 -1.3483,0.94827 -0.88898,0.3556 -2.0743,0.3556 v 2.6522 q 0,0.1778 -0.56304,0.25188 -0.54822,0.05927 -0.94827,0.05927 z m 1.5113,-7.8232 v 2.341 h 0.19262 q 0.51858,0 0.87418,-0.32597 0.3556,-0.32597 0.3556,-0.91864 0,-0.59267 -0.25188,-0.84455 -0.23707,-0.25188 -0.85937,-0.25188 z"
         id="path448"
         style="fill:#ffffff" /><path
         d="m 50.893,32.763 q 0,0.23707 -1.4076,0.23707 -1.4224,0 -1.4224,-0.22225 v -9.6605 q 0,-0.51858 0.54822,-0.51858 h 2.83 q 3.8968,0 3.8968,3.0374 0,0.91864 -0.3556,1.6743 -0.3556,0.74084 -1.0075,1.1853 l 1.8669,3.1115 q -0.11853,0.3556 -0.77047,0.81492 -0.889,0.63712 -1.4669,0.63712 -0.57785,0 -0.85937,-0.41487 l -1.3928,-3.2449 h -0.45932 z m 0,-7.5417 v 2.2225 h 0.07408 q 1.4076,0 1.4076,-1.1705 0,-0.5334 -0.28152,-0.78528 -0.2667,-0.2667 -0.889,-0.2667 z"
         id="path450"
         style="fill:#ffffff" /><path
         d="m 61.205,33.119 q -2.0743,0 -3.393,-1.3631 -1.3039,-1.3631 -1.3039,-3.9709 0,-2.6226 1.3187,-3.9709 1.3335,-1.3483 3.4227,-1.3483 2.104,0 3.393,1.3335 1.2891,1.3187 1.2891,4.0153 0,2.6818 -1.3187,4.0005 -1.3187,1.3039 -3.4078,1.3039 z m 0.01482,-7.8084 q -0.7112,0 -1.2002,0.65194 -0.47413,0.65194 -0.47413,1.8373 0,1.1705 0.45932,1.8076 0.45932,0.6223 1.2002,0.6223 0.75565,0 1.215,-0.63712 0.47414,-0.63712 0.47414,-1.8225 0,-1.18538 -0.48895,-1.8225 -0.47414,-0.63712 -1.1853,-0.63712 z"
         id="path452"
         style="fill:#ffffff" /><path
         d="m 71.577,32.734 q 0,0.29633 -1.4669,0.29633 -1.4669,0 -1.4669,-0.29633 v -7.438 h -1.778 q -0.25188,0 -0.3556,-0.68157 -0.04445,-0.32597 -0.04445,-0.66675 0,-0.34078 0.04445,-0.66675 0.10372,-0.68157 0.3556,-0.68157 h 6.4453 q 0.25188,0 0.3556,0.68157 0.04445,0.32597 0.04445,0.66675 0,0.34078 -0.04445,0.66675 -0.10372,0.68157 -0.3556,0.68157 h -1.7336 z"
         id="path454"
         style="fill:#ffffff" /><path
         d="m 78.956,33.119 q -2.0743,0 -3.393,-1.3631 -1.3039,-1.3631 -1.3039,-3.9709 0,-2.6226 1.3187,-3.9709 1.3335,-1.3483 3.4227,-1.3483 2.104,0 3.393,1.3335 1.2891,1.3187 1.2891,4.0153 0,2.6818 -1.3187,4.0005 -1.3187,1.3039 -3.4078,1.3039 z m 0.01482,-7.8084 q -0.7112,0 -1.2002,0.65194 -0.47413,0.65194 -0.47413,1.8373 0,1.1705 0.45932,1.8076 0.45932,0.6223 1.2002,0.6223 0.75565,0 1.215,-0.63712 0.47413,-0.63712 0.47413,-1.8225 0,-1.18538 -0.48895,-1.8225 -0.47413,-0.63712 -1.1853,-0.63712 z"
         id="path456"
         style="fill:#ffffff" /><path
         d="m 89.327,32.734 q 0,0.29633 -1.4669,0.29633 -1.4669,0 -1.4669,-0.29633 v -7.438 h -1.778 q -0.25188,0 -0.3556,-0.68157 -0.04445,-0.32597 -0.04445,-0.66675 0,-0.34078 0.04445,-0.66675 0.10372,-0.68157 0.3556,-0.68157 h 6.4453 q 0.25188,0 0.3556,0.68157 0.04445,0.32597 0.04445,0.66675 0,0.34078 -0.04445,0.66675 -0.10372,0.68157 -0.3556,0.68157 h -1.7336 z"
         id="path458"
         style="fill:#ffffff" /><path
         d="m 97.462,23.088 q 0.19262,-0.51858 1.8965,-0.51858 0.42968,0 1.0075,0.05927 0.59267,0.05927 0.54822,0.14817 l -3.0819,6.1934 v 3.6153 q 0,0.25188 -0.81492,0.3556 -0.41487,0.05927 -0.81492,0.05927 -0.40005,0 -0.8001,-0.04445 -0.81492,-0.10372 -0.81492,-0.37042 v -3.5264 l -3.1856,-6.2526 q -0.05927,-0.0889 0.60748,-0.16298 0.66675,-0.0889 1.1261,-0.0889 1.8225,0 2.0003,0.5334 l 1.0816,3.0226 z"
         id="path460"
         style="fill:#ffffff" /><path
         d="m 102.71,33 q -1.3483,0 -1.3483,-0.29633 v -9.6012 q 0,-0.50377 0.45932,-0.50377 h 2.6077 q 2.1929,0 3.156,0.90382 0.9779,0.90382 0.9779,2.6226 0,1.4224 -0.91864,2.6077 -0.45931,0.59267 -1.3483,0.94827 -0.889,0.3556 -2.0743,0.3556 v 2.6522 q 0,0.1778 -0.56304,0.25188 -0.54822,0.05927 -0.94827,0.05927 z m 1.5113,-7.8232 v 2.341 h 0.19261 q 0.51859,0 0.87419,-0.32597 0.3556,-0.32597 0.3556,-0.91864 0,-0.59267 -0.25189,-0.84455 -0.23706,-0.25188 -0.85936,-0.25188 z"
         id="path462"
         style="fill:#ffffff" /><path
         d="m 114.68,26.718 q 0.28152,0 0.28152,1.0372 0,0.31115 -0.0741,0.74084 -0.0593,0.41487 -0.23707,0.41487 h -1.8817 v 1.4817 h 2.7263 q 0.25188,0 0.34078,0.65194 0.0444,0.28152 0.0444,0.60748 0,0.31115 -0.0889,0.81492 -0.0889,0.50377 -0.29633,0.50377 h -5.0673 q -0.56304,0 -0.56304,-0.45932 v -9.5271 q 0,-0.38523 0.34079,-0.38523 h 5.3044 q 0.31115,0 0.31115,1.3187 0,1.3039 -0.31115,1.3039 h -2.7411 v 1.4965 z"
         id="path464"
         style="fill:#ffffff" /></g><g
       transform="matrix(0.027886,0,0,0.027886,8.043,7.4313)"
       id="g476"
       style="display:inline;fill:#ffffff"><path
         d="m 417.62,76.875 c -42.392,9.4242 -84.327,22.545 -123.64,42.334 0.89912,34.716 3.1436,67.98 7.6934,101.77 -15.268,9.7821 -31.315,18.178 -45.576,29.629 -14.49,11.147 -29.29,21.812 -42.41,34.85 -26.212,-17.337 -53.955,-33.63 -82.535,-48.012 -30.807,33.155 -59.613,68.94 -83.145,108.98 18.493,29.029 38.329,58.206 56.699,80.959 v 245.77 c 0.44956,0.004 0.89835,0.0209 1.3438,0.0625 l 150.67,14.527 c 7.8923,0.76176 14.077,7.1145 14.627,15.023 l 4.6465,66.51 131.43,9.3789 9.0547,-61.387 c 1.1739,-7.9589 8.0003,-13.857 16.051,-13.857 h 158.96 c 8.0463,0 14.873,5.8985 16.047,13.857 l 9.0547,61.387 131.43,-9.3789 4.6426,-66.51 c 0.55362,-7.909 6.7346,-14.258 14.627,-15.023 l 150.61,-14.527 c 0.4454,-0.0416 0.89028,-0.0583 1.3398,-0.0625 v -19.611 l 0.0625,-0.0195 v -226.13 c 21.216,-26.709 41.307,-56.172 56.699,-80.959 -23.523,-40.044 -52.345,-75.829 -83.152,-108.98 -28.572,14.382 -56.325,30.674 -82.537,48.012 -13.116,-13.037 -27.89,-23.702 -42.4,-34.85 -14.257,-11.451 -30.323,-19.847 -45.562,-29.629 4.5372,-33.788 6.7803,-67.051 7.6836,-101.77 -39.32,-19.789 -81.249,-32.91 -123.66,-42.334 -16.934,28.46 -32.419,59.279 -45.906,89.408 -15.993,-2.6724 -32.06,-3.662 -48.148,-3.8535 v -0.0254 c -0.11239,0 -0.21676,0.0254 -0.3125,0.0254 -0.0999,0 -0.20478,-0.0254 -0.30468,-0.0254 v 0.0254 c -16.118,0.19148 -32.171,1.1811 -48.168,3.8535 -13.479,-30.129 -28.956,-60.948 -45.914,-89.408 z m -119.2,359.52 c 50.151,0 90.799,40.617 90.799,90.752 0,50.168 -40.648,90.809 -90.799,90.809 -50.126,0 -90.787,-40.641 -90.787,-90.809 0,-50.134 40.661,-90.752 90.787,-90.752 z m 427.18,0 c 50.122,0 90.779,40.617 90.779,90.752 0,50.168 -40.657,90.809 -90.779,90.809 -50.159,0 -90.807,-40.641 -90.807,-90.809 0,-50.134 40.647,-90.752 90.807,-90.752 z M 512,489.504 c 16.143,0 29.254,11.908 29.254,26.561 v 83.59 c 0,14.665 -13.111,26.562 -29.254,26.562 -16.143,0 -29.227,-11.898 -29.227,-26.562 v -83.59 c 0,-14.652 13.084,-26.561 29.227,-26.561 z"
         stroke-width="4.1626"
         id="path468"
         style="fill:#ffffff" /><path
         transform="matrix(4.1626,0,0,-4.1626,784.07,718.72)"
         d="m 0,0 -1.121,-16.063 c -0.135,-1.936 -1.675,-3.477 -3.611,-3.616 l -38.555,-2.751 c -0.094,-0.007 -0.188,-0.01 -0.281,-0.01 -1.916,0 -3.569,1.406 -3.852,3.33 l -2.211,14.994 H -81.09 l -2.211,-14.994 c -0.297,-2.018 -2.101,-3.469 -4.133,-3.32 l -38.555,2.751 c -1.936,0.139 -3.476,1.68 -3.611,3.616 L -130.721,0 -163.268,3.138 c 0.015,-3.498 0.06,-7.33 0.06,-8.093 0,-34.374 43.605,-50.896 97.781,-51.086 h 0.133 c 54.176,0.19 97.766,16.712 97.766,51.086 0,0.777 0.047,4.593 0.063,8.093 z"
         id="path470"
         style="fill:#ffffff" /><path
         transform="matrix(4.1626,0,0,-4.1626,367.37,532.54)"
         d="m 0,0 c 0,-7.994 -6.479,-14.473 -14.479,-14.473 -7.996,0 -14.479,6.479 -14.479,14.473 0,7.994 6.483,14.479 14.479,14.479 C -6.479,14.479 0,7.994 0,0"
         id="path472"
         style="fill:#ffffff" /><path
         transform="matrix(4.1626,0,0,-4.1626,656.64,532.54)"
         d="m 0,0 c 0,-7.994 6.477,-14.473 14.471,-14.473 8.002,0 14.479,6.479 14.479,14.473 0,7.994 -6.477,14.479 -14.479,14.479 C 6.477,14.479 0,7.994 0,0"
         id="path474"
         style="fill:#ffffff" /></g><g
       stroke="#ffffff"
       stroke-linecap="round"
       stroke-opacity="0"
       stroke-width="0"
       aria-label="512 x 512"
       id="g492"
       style="display:inline;fill:#ffffff"><path
         d="m 54.482,51.806 -1.4738,-0.38034 0.53881,-5.8081 h 5.3168 v 1.6561 h -3.7875 l -0.24564,2.7812 q 0.22186,-0.15848 0.59428,-0.30902 0.37242,-0.15848 0.83992,-0.15848 0.70521,0 1.244,0.26941 0.54674,0.26941 0.92708,0.77652 0.38034,0.4992 0.57051,1.2123 0.19809,0.71314 0.19809,1.6164 0,0.8003 -0.19809,1.4976 -0.19809,0.68936 -0.61013,1.2203 -0.41204,0.53094 -1.0301,0.83199 -0.61013,0.3011 -1.4263,0.3011 -0.61805,0 -1.1806,-0.20602 -0.56258,-0.21394 -1.0142,-0.6339 -0.44373,-0.41996 -0.72106,-1.0301 -0.26941,-0.61805 -0.3011,-1.4183 h 1.7987 q 0.05547,0.55466 0.23771,0.94292 0.18225,0.38826 0.48335,0.59428 0.3011,0.19809 0.68936,0.19809 0.36449,0 0.6339,-0.1664 0.26941,-0.17432 0.44373,-0.49127 0.17432,-0.31695 0.26148,-0.74483 0.08716,-0.4358 0.08716,-0.95877 0,-0.4992 -0.10301,-0.91123 -0.09508,-0.41996 -0.29318,-0.72106 -0.19809,-0.30903 -0.4992,-0.47542 -0.29318,-0.1664 -0.68936,-0.1664 -0.53089,0 -0.79237,0.20602 -0.26148,0.19809 -0.4992,0.47542 z"
         id="path478"
         style="fill:#ffffff" /><path
         d="m 65.306,45.578 v 11.577 h -1.8462 v -9.2628 l -2.2979,0.95085 v -1.6085 l 3.9222,-1.6561 z"
         id="path480"
         style="fill:#ffffff" /><path
         d="m 75.48,55.601 v 1.5531 H 68.8399 V 55.815 l 3.1457,-4.0807 q 0.51504,-0.68936 0.79237,-1.1886 0.28526,-0.50712 0.39619,-0.91123 0.11093,-0.40411 0.11093,-0.79237 0,-0.53881 -0.15055,-0.95085 -0.14263,-0.41203 -0.42788,-0.64182 -0.28526,-0.23771 -0.69729,-0.23771 -0.51504,0 -0.84784,0.27733 -0.3328,0.26941 -0.49127,0.75275 -0.15848,0.47542 -0.15848,1.0935 h -1.8462 q 0,-1.0063 0.38826,-1.8462 0.39619,-0.83992 1.1489,-1.3312 0.75275,-0.4992 1.8304,-0.4992 0.99839,0 1.6878,0.38826 0.69729,0.38826 1.0539,1.1014 0.36449,0.71314 0.36449,1.6957 0,0.53881 -0.15055,1.0776 -0.14263,0.53089 -0.40411,1.0539 -0.26148,0.52297 -0.6339,1.0539 -0.36449,0.53089 -0.80822,1.0776 l -1.9889,2.6941 z"
         id="path482"
         style="fill:#ffffff" /><path
         d="m 82.278,48.581 1.2361,2.6148 1.1648,-2.6148 h 2.0206 l -2.2503,4.2075 2.3296,4.366 h -2.0206 l -1.2836,-2.702 -1.2599,2.702 h -2.0285 l 2.2741,-4.3501 -2.2028,-4.2233 z"
         id="path484"
         style="fill:#ffffff" /><path
         d="m 93.53,51.806 -1.4738,-0.38034 0.53881,-5.8081 h 5.3168 v 1.6561 h -3.7875 l -0.24564,2.7812 q 0.22186,-0.15848 0.59428,-0.30902 0.37242,-0.15848 0.83992,-0.15848 0.70521,0 1.244,0.26941 0.54674,0.26941 0.92708,0.77652 0.38034,0.4992 0.57051,1.2123 0.19809,0.71314 0.19809,1.6164 0,0.8003 -0.19809,1.4976 -0.19809,0.68936 -0.61013,1.2203 -0.41204,0.53094 -1.0301,0.83199 -0.61013,0.3011 -1.4263,0.3011 -0.61805,0 -1.1806,-0.20602 -0.56258,-0.21394 -1.0142,-0.6339 -0.44373,-0.41996 -0.72106,-1.0301 -0.26941,-0.61805 -0.3011,-1.4183 h 1.7987 q 0.05547,0.55466 0.23771,0.94292 0.18225,0.38826 0.48335,0.59428 0.3011,0.19809 0.68936,0.19809 0.36449,0 0.6339,-0.1664 0.26941,-0.17432 0.44373,-0.49127 0.17432,-0.31695 0.26148,-0.74483 0.08716,-0.4358 0.08716,-0.95877 0,-0.4992 -0.10301,-0.91123 -0.09508,-0.41996 -0.29318,-0.72106 -0.19809,-0.30903 -0.4992,-0.47542 -0.29318,-0.1664 -0.68936,-0.1664 -0.53089,0 -0.79237,0.20602 -0.26148,0.19809 -0.49919,0.47542 z"
         id="path486"
         style="fill:#ffffff" /><path
         d="m 104.35,45.578 v 11.577 h -1.8462 v -9.2628 l -2.2979,0.95085 v -1.6085 l 3.9222,-1.6561 z"
         id="path488"
         style="fill:#ffffff" /><path
         d="m 114.53,55.601 v 1.5531 h -6.6401 V 55.815 l 3.1457,-4.0807 q 0.51504,-0.68936 0.79237,-1.1886 0.28526,-0.50712 0.39619,-0.91123 0.11093,-0.40411 0.11093,-0.79237 0,-0.53881 -0.15055,-0.95085 -0.14262,-0.41203 -0.42788,-0.64182 -0.28525,-0.23771 -0.69729,-0.23771 -0.51504,0 -0.84784,0.27733 -0.33279,0.26941 -0.49127,0.75275 -0.15847,0.47542 -0.15847,1.0935 h -1.8462 q 0,-1.0063 0.38826,-1.8462 0.39619,-0.83992 1.1489,-1.3312 0.75276,-0.4992 1.8304,-0.4992 0.99839,0 1.6878,0.38826 0.69729,0.38826 1.0538,1.1014 0.3645,0.71314 0.3645,1.6957 0,0.53881 -0.15055,1.0776 -0.14263,0.53089 -0.40411,1.0539 -0.26149,0.52297 -0.6339,1.0539 -0.36449,0.53089 -0.80822,1.0776 l -1.9889,2.6941 z"
         id="path490"
         style="fill:#ffffff" /></g><path
       d="m 11.265,39.894 h 103.25"
       stroke="#ffffff"
       stroke-linecap="round"
       stroke-width="2"
       id="path494"
       style="display:inline" /><g
       transform="matrix(.11304 0 0 -.11304 -7.1944 52.905)"
       fill="#fff"
       id="g508"><path
         transform="matrix(1.1311 0 0 1.1311 531.45 355.32)"
         d="m0 0c-3.611 0-6.636-1.659-9.09-4.967-2.441-3.311-3.668-7.958-3.668-13.938 0-5.993 1.166-10.581 3.503-13.778 2.333-3.207 5.398-4.804 9.2-4.804 3.8 0 6.887 1.617 9.258 4.862 2.371 3.233 3.559 7.861 3.559 13.886 0 6.02-1.227 10.654-3.673 13.89-2.443 3.232-5.473 4.849-9.089 4.849m-0.055-59.493c-10.573 0-19.195 3.46-25.859 10.379-6.655 6.925-9.984 17.03-9.984 30.314 0 13.292 3.367 23.356 10.101 30.209 6.736 6.844 15.431 10.269 26.082 10.269 10.649 0 19.251-3.363 25.794-10.109 6.555-6.733 9.827-16.94 9.827-30.591 0-13.661-3.348-23.822-10.05-30.49-6.702-6.654-15.333-9.981-25.911-9.981"
         id="path498" /><path
         transform="matrix(1.1311 0 0 1.1311 607.85 354.43)"
         d="m0 0v-33.768c0-1.577 0.116-2.571 0.342-2.988 0.224-0.415 0.903-0.623 2.029-0.623 4.144 0 7.283 1.548 9.429 4.634 2.151 3.083 3.215 8.216 3.215 15.405 0 7.192-1.113 11.878-3.325 14.055-2.223 2.183-5.744 3.285-10.561 3.285zm-21.675-52.392v67.735c0 1.883 0.468 3.369 1.413 4.471 0.939 1.085 2.161 1.636 3.671 1.636h18.854c11.965 0 21.053-3.018 27.257-9.04 6.215-6.02 9.322-15.499 9.322-28.447 0-27.7-11.821-41.547-35.456-41.547h-19.302c-3.836 0-5.759 1.727-5.759 5.192"
         id="path500" /><path
         transform="matrix(1.1311 0 0 1.1311 700.81 355.32)"
         d="m0 0c-3.612 0-6.645-1.659-9.095-4.967-2.44-3.311-3.662-7.958-3.662-13.938 0-5.993 1.169-10.581 3.499-13.778 2.33-3.207 5.398-4.804 9.2-4.804 3.801 0 6.89 1.617 9.258 4.862 2.372 3.233 3.56 7.861 3.56 13.886 0 6.02-1.225 10.654-3.671 13.89-2.447 3.232-5.473 4.849-9.089 4.849m-0.058-59.493c-10.577 0-19.193 3.46-25.851 10.379-6.663 6.925-9.993 17.03-9.993 30.314 0 13.292 3.367 23.356 10.1 30.209 6.741 6.844 15.431 10.269 26.086 10.269 10.651 0 19.246-3.363 25.797-10.109 6.55-6.733 9.822-16.94 9.822-30.591 0-13.661-3.349-23.822-10.05-30.49-6.699-6.654-15.338-9.981-25.911-9.981"
         id="path502" /><path
         transform="matrix(1.1311 0 0 1.1311 789.01 291.34)"
         d="m0 0c0-1.496-3.721-2.255-11.176-2.255-7.448 0-11.18 0.759-11.18 2.255v56.681h-13.545c-1.281 0-2.185 1.727-2.71 5.198-0.226 1.652-0.334 3.343-0.334 5.077 0 1.724 0.108 3.422 0.334 5.077 0.525 3.462 1.429 5.202 2.71 5.202h49.112c1.279 0 2.179-1.74 2.712-5.202 0.221-1.655 0.335-3.353 0.335-5.077 0-1.734-0.114-3.425-0.335-5.077-0.533-3.471-1.433-5.198-2.712-5.198h-13.211z"
         id="path504" /><path
         transform="matrix(1.1311 0 0 1.1311 468.27 336.71)"
         d="m0 0c-6.078 0.094-13.034-1.173-13.034-1.173v-11.863h6.995l-0.078-5.288c0-1.959-1.942-2.943-5.815-2.943-3.878 0-7.303 1.642-10.274 4.917-2.978 3.279-4.459 8.072-4.459 14.388 0 6.329 1.447 10.995 4.345 14.006 2.892 3.008 6.683 4.517 11.346 4.517 1.959 0 3.987-0.316 6.096-0.961 2.11-0.639 3.519-1.238 4.238-1.799 0.713-0.577 1.391-0.85 2.032-0.85 0.638 0 1.671 0.746 3.1 2.255 1.431 1.505 2.713 3.786 3.844 6.827 1.126 3.057 1.69 5.4 1.69 7.062 0 1.649-0.036 2.786-0.109 3.386-1.581 1.73-4.499 3.102-8.755 4.122-4.248 1.017-9.011 1.522-14.28 1.522-11.594 0-20.66-3.65-27.207-10.95-6.552-7.303-9.822-16.783-9.822-28.452 0-13.701 3.347-24.087 10.041-31.162 6.706-7.074 15.51-10.607 26.425-10.607 5.87 0 11.08 0.505 15.632 1.522 4.557 1.013 7.586 2.053 9.093 3.105l0.452 35.33c0 2.053-5.418 2.985-11.496 3.089"
         id="path506" /></g><g
       
       stroke="#fff"
       stroke-linecap="round"
       stroke-width="3"
       id="g524"
       style="stroke-linecap:square"><path
         d="m256 1.5v509"
         id="path512"
         style="stroke-linecap:square" /><path
         d="m128 1.5v509"
         stroke-opacity=".18973"
         id="path514"
         style="stroke-linecap:square" /><path
         d="m384 1.5v509"
         stroke-opacity=".18973"
         id="path516"
         style="stroke-linecap:square" /><path
         d="m1.5 256h509"
         id="path518"
         style="stroke-linecap:square" /><path
         d="m1.5 384h509"
         stroke-opacity=".18973"
         id="path520"
         style="stroke-linecap:square" /><path
         d="m1.5 128h509"
         stroke-opacity=".18973"
         id="path522"
         style="stroke-linecap:square" /></g><rect
       style="display:inline;fill-opacity:0;stroke:#ffffff;stroke-width:4.95164;stroke-linecap:round;stroke-opacity:1"
       id="rect7743"
       width="507.04837"
       height="507.04837"
       x="2.4758201"
       y="2.4758201" /></g></svg>
